# xmcd
#
# Track frame offsets:
#	150
#	13988
#	33043
#	53353
#	74940
#	91358
#	112702
#	127228
#	143803
#	161789
#	182166
#	200288
#
# Disc length: 2910 seconds
#
# Revision: 0
# Processed by: cddbd v1.5.2PL0 Copyright (c) Steve Scherf et al.
# Submitted via: dBpowerAMP V4.0
#
DISCID=a70b5c0c
DTITLE=Rav Shmuel - Protocola
DYEAR=2006
DGENRE=Jewish
TTITLE0=Dumb World
TTITLE1=Somebody Else
TTITLE2=Big Talkers
TTITLE3=I Feel Love
TTITLE4=Protocols
TTITLE5=Realistic X
TTITLE6=Last Chance
TTITLE7=Confused
TTITLE8=Social Suicide
TTITLE9=Itinerant Plea
TTITLE10=I Am Oxygen
TTITLE11=Fatherland
EXTD=
EXTT0=
EXTT1=
EXTT2=
EXTT3=
EXTT4=
EXTT5=
EXTT6=
EXTT7=
EXTT8=
EXTT9=
EXTT10=
EXTT11=
PLAYORDER=
